<?xml version="1.0" encoding="utf-8"?>
<!-- Generator: Adobe Illustrator 18.1.1, SVG Export Plug-In . SVG Version: 6.00 Build 0)  -->
<svg version="1.1" id="Layer_1" xmlns="http://www.w3.org/2000/svg" xmlns:xlink="http://www.w3.org/1999/xlink" x="0px" y="0px"
	 viewBox="118.3 166.3 375.4 392.4" enable-background="new 118.3 166.3 375.4 392.4" xml:space="preserve">
<g>
	<path fill="none" d="M215.2,475.7l90.7,25.2l90.9-25.2L417,249.1H195L215.2,475.7z M306,295.7L306,295.7h69.6l-2.6,27.8h-65.1
		h-41.1l2.5,28.5h101.3l-7.6,85.3L306.1,453l-57-15.8l-3.9-43.6H273l2.6,22.3l30.5,8.1l30.9-8.3l3.2-36h-96.3l-6.8-76.6l-0.7-7.4
		H306z"/>
	<path fill="#999999" d="M438.7,223.8c-35.4-37.1-82.6-57.5-132.7-57.5s-97.2,20.4-132.7,57.5c-35.4,37-55,86.3-55,138.7
		s19.5,101.7,55,138.7c35.4,37,82.6,57.5,132.7,57.5s97.2-20.4,132.7-57.5c35.4-37,55-86.3,55-138.7S474.1,260.9,438.7,223.8z
		 M396.8,475.6l-90.9,25.2l-90.7-25.2L195,249.1h222L396.8,475.6z"/>
	<polygon fill="#999999" points="243.9,379.7 340.2,379.7 337,415.8 306.1,424.1 275.6,416 273,393.6 245.1,393.6 249,437.2 
		306.1,453 363,437.2 370.6,351.9 269.3,351.9 266.8,323.5 307.9,323.5 373,323.5 375.6,295.7 306.1,295.7 306,295.7 236.4,295.7 
		237.1,303.1 	"/>
</g>
</svg>
