<?xml version="1.0" encoding="utf-8"?>
<!-- Generator: Adobe Illustrator 18.1.1, SVG Export Plug-In . SVG Version: 6.00 Build 0)  -->
<svg version="1.1" id="Layer_1" xmlns="http://www.w3.org/2000/svg" xmlns:xlink="http://www.w3.org/1999/xlink" x="0px" y="0px"
	 viewBox="113.2 161.2 385.7 402.7" enable-background="new 113.2 161.2 385.7 402.7" xml:space="preserve">
<path fill="#999999" d="M306,559.3c-50.3,0-97.6-20.4-133.1-57.7c-35.6-37.1-55.1-86.6-55.1-139.1c0-52.6,19.6-102,55.1-139.1
	c35.6-37.2,82.8-57.7,133.1-57.7s97.6,20.4,133.1,57.7c35.6,37.1,55.1,86.6,55.1,139.1c0,52.6-19.6,102-55.1,139.1
	C403.6,538.8,356.3,559.3,306,559.3z M306,166.4c-50.1,0-97.2,20.4-132.7,57.5c-35.4,37-55,86.3-55,138.7s19.5,101.7,55,138.7
	s82.6,57.5,132.7,57.5s97.2-20.4,132.7-57.5c35.4-37,55-86.3,55-138.7s-19.5-101.7-55-138.7C403.2,186.8,356.1,166.4,306,166.4z"/>
<g>
	<path fill="#999999" d="M215.2,475.7l90.7,25.2l90.9-25.2L417,249.1H195L215.2,475.7z M306,295.7L306,295.7h69.6l-2.6,27.8h-65.1
		h-41.1l2.5,28.5h101.3l-7.6,85.3L306.1,453l-57-15.8l-3.9-43.6H273l2.6,22.3l30.5,8.1l30.9-8.3l3.2-36h-96.3l-6.8-76.6l-0.7-7.4
		H306z"/>
	<path fill="#999999" d="M442.4,220.2c-36.4-38.1-84.9-59.1-136.4-59.1s-100,21-136.4,59.1c-36.4,38-56.4,88.6-56.4,142.3
		s20.1,104.3,56.4,142.3c36.4,38.1,84.9,59.1,136.4,59.1s100-21,136.4-59.1c36.4-38,56.4-88.6,56.4-142.3S478.8,258.2,442.4,220.2z
		 M435.3,498c-34.5,36.2-80.5,56.1-129.3,56.1s-94.8-19.9-129.4-56C142,461.9,123,413.7,123,362.5S142,263.2,176.7,227
		c34.5-36.1,80.5-56,129.3-56s94.8,19.9,129.3,55.9c34.6,36.2,53.7,84.3,53.7,135.6C489,413.7,470,461.9,435.3,498z"/>
</g>
<g>
</g>
</svg>
