<svg xmlns="http://www.w3.org/2000/svg" xmlns:xlink="http://www.w3.org/1999/xlink" version="1.1" id="Layer_1" x="0px" y="0px" viewBox="194 -104 1000 1000" enable-background="new 194 -104 1000 1000" xml:space="preserve"><path fill="#999999" d="M389.3 503.4c-2.6-2.6-2.6-5.2 0-7.8c5.2-5.2 11.7-7.2 19.5-5.9s12.4 2.6 13.7 3.9 c9.1 3.9 19.2 12.7 30.3 26.4c11.1 13.7 19.9 23.1 26.4 28.3c31.2 26 63.1 28 95.7 5.9c2.6-9.1 6.8-16.9 12.7-23.4 c5.9-6.5 11.4-11.1 16.6-13.7c5.2-2.6 14.3-6.5 27.3-11.7c-43-3.9-77.8-11.4-104.5-22.5c-26.7-11.1-47.8-25.1-63.5-42 c-20.8-23.4-33.5-54-38.1-91.8c-4.6-37.8-1.6-72.3 8.8-103.5c7.8-19.5 18.9-37.1 33.2-52.7c-10.4-32.6-8.5-69.7 5.9-111.3 c41.7 2.6 79.4 16.9 113.3 43c65.1-16.9 132.8-17.6 203.1-2c9.1-6.5 23.1-14.6 42-24.4c18.9-9.8 42.6-15.3 71.3-16.6 c5.2 14.3 8.8 31.2 10.7 50.8c2 19.5 1 37.8-2.9 54.7c29.9 31.2 45.6 72.9 46.9 125c0 41.7-7.2 76.2-21.5 103.5 c-14.3 27.3-39.7 50.1-76.2 68.4c-24.7 11.7-57.3 18.9-97.7 21.5c18.2 9.1 31.6 18.6 40 28.3s14 25.1 16.6 45.9v61.5 c0 0 0.7 19.9 2 59.6c3.9 6.5 8.5 12 13.7 16.6c5.2 4.6 9.8 7.8 13.7 9.8c3.9 2 5.2 4.9 3.9 8.8s-6.5 5.9-15.6 5.9 c-22.1 0-39.7-7.8-52.7-23.4c-3.9-6.5-5.9-14.3-5.9-23.4V601c0-10.4-2.6-17.9-7.8-22.5c-5.2-4.6-10.4-7.5-15.6-8.8v123 c0 22.1 2.6 36.5 7.8 43s8.5 13 9.8 19.5c1.3 1.3 0.3 2.3-2.9 2.9c-3.3 0.7-8.8-0.3-16.6-2.9c-16.9-3.9-28.6-12.7-35.2-26.4 c-6.5-13.7-9.8-28.3-9.8-43.9V563.9h-25.4V685c0 15.6-3.3 30.6-9.8 44.9c-9.1 18.2-26 28-50.8 29.3c-3.9-1.3-5.9-2.6-5.9-3.9 c1.3-1.3 5.2-7.8 11.7-19.5c1.3-2.6 2.9-7.8 4.9-15.6c2-7.8 2.9-16.9 2.9-27.3v-123c-5.2 1.3-10.1 4.2-14.6 8.8 c-4.6 4.6-6.8 12-6.8 22.5v93.7c0 9.1-2 16.9-5.9 23.4c-11.7 15.6-29.3 23.4-52.7 23.4c-9.1 0-14.3-2-15.6-5.9c-1.3-2.6-1-4.9 1-6.8 s4.9-4.2 8.8-6.8s6.5-4.6 7.8-5.9c5.2-3.9 9.1-9.1 11.7-15.6c3.9-5.2 4.9-18.9 2.9-41s-2.3-36.5-1-43 c-33.9 11.7-68.4 5.9-103.5-17.6c-10.4-10.4-20.8-25.4-31.2-44.9C428.4 539.8 412.7 522.9 389.3 503.4L389.3 503.4z"/><path fill="#999999" d="M694 896c-133.6 0-259.3-52.2-353.7-146.8C246 654.7 194 529.1 194 395.5s51.9-259.2 146.3-353.7 C434.7-52.8 560.4-105 694-105s259.3 52.2 353.7 146.8C1142 136.3 1194 261.9 1194 395.5s-51.9 259.2-146.3 353.7 C953.3 843.8 827.6 896 694 896z M694-80.7c-126.6 0-245.8 49.4-335.3 139.2c-89.8 90.1-139.3 209.6-139.3 337s49.5 246.9 139.2 337 c89.7 89.8 208.8 139.2 335.4 139.2s245.8-49.4 335.3-139.3c89.8-89.9 139.2-209.6 139.2-337s-49.5-246.9-139.2-337 C939.8-31.2 820.6-80.7 694-80.7z"/></svg>