<?xml version="1.0" encoding="utf-8"?>
<!-- Generator: Adobe Illustrator 18.1.1, SVG Export Plug-In . SVG Version: 6.00 Build 0)  -->
<svg version="1.1" id="Layer_1" xmlns="http://www.w3.org/2000/svg" xmlns:xlink="http://www.w3.org/1999/xlink" x="0px" y="0px"
	 viewBox="0 0 385.7 402.7" enable-background="new 0 0 385.7 402.7" xml:space="preserve">
<polygon fill="#999999" points="265,143.9 260.9,169.3 95.5,169.3 88.1,209.5 252.2,209.5 244.2,255.7 177.2,277.8 121.7,255.7 
	125,235.6 82.8,235.6 73.6,285.2 169.8,321.5 278.4,285.2 314.6,103.4 108.9,103.4 100.8,143.9 "/>
<path fill="#999999" d="M192.8,402.7c-51.5,0-100-21-136.4-59.1C20.1,305.6,0,255.1,0,201.3S20,97.1,56.4,59.1
	C92.8,21,141.3,0,192.8,0s100,21,136.4,59.1c36.4,38,56.4,88.6,56.4,142.3s-20,104.3-56.4,142.3
	C292.8,381.7,244.4,402.7,192.8,402.7z M192.8,9.8C144,9.8,98,29.7,63.5,65.8C28.9,102,9.8,150.1,9.8,201.3s19.1,99.3,53.7,135.6
	c34.6,36.1,80.5,56,129.4,56s94.8-19.9,129.3-56.1c34.6-36.2,53.7-84.3,53.7-135.6S356.7,102,322.2,65.7
	C287.6,29.7,241.7,9.8,192.8,9.8z"/>
</svg>
